<svg viewBox="0 0 262 262" fill="none" xmlns="http://www.w3.org/2000/svg">
  <defs>
    <clipPath id="bounds">
      <rect width="262" height="262" rx="30"/>
    </clipPath>
  </defs>
  <rect width="262" height="262" rx="30" fill="#000000"/>

  <g clip-path="url(#bounds)" fill="white">
    <path d="M-60.786 294C-57.327 242 27.215 188 131 188C234.786 188 319.327 242 322.786 294"
          fill="none" stroke="white" stroke-width="28" stroke-linecap="butt"/>
    <rect x="32" y="207" width="20.5" height="100"/>
    <rect x="91" y="198" width="20.5" height="109"/>
    <rect x="151" y="198" width="20.5" height="109"/>
    <rect x="210" y="207" width="20.5" height="100"/>
    <path transform="translate(45.85 13.74) scale(0.65)" d="M131 39.2646C134.289 44.7223 137.921 50.4461 141.631 56.2715C147.191 65.0012 152.943 73.9894 158.166 82.9082C163.392 91.8314 168.010 100.554 171.312 108.708C174.632 116.908 176.489 124.214 176.489 130.379C176.489 156.002 155.978 176.673 130.800 176.673C105.622 176.673 85.1105 156.002 85.1105 130.379C85.1105 124.289 87.1502 116.839 90.7628 108.368C94.3465 99.965 99.3047 90.9483 104.768 81.8164C110.238 72.6724 116.092 63.61 121.514 54.9707C124.938 49.5147 128.194 44.2166 131 39.2646Z"/>
  </g>
</svg>
